<svg xmlns="http://www.w3.org/2000/svg" viewBox="0 0 12.863 16">
  <defs>
    <style>
      .cls-1 {
        fill: #d80027;
      }
    </style>
  </defs>
  <path id="Path_1273" data-name="Path 1273" class="cls-1" d="M53.1,1.543A1.543,1.543,0,0,0,50.463.452L48.517,2.4,47.485,1.367a1.262,1.262,0,0,0-1.785,0l-2,2a.406.406,0,0,0-.006.568L40.352,7.277a.406.406,0,0,0,0,.574l1.9,1.909v.7a2.1,2.1,0,0,0,.294,1.214,1.276,1.276,0,0,0,.915.552,7.422,7.422,0,0,1-.186.9,2.5,2.5,0,0,0,.119,2.258A1.811,1.811,0,0,0,44.911,16a1.454,1.454,0,0,0,1.194-.514,2.1,2.1,0,0,0,.176-1.853l-.019-.09a1.288,1.288,0,0,0,.274.029,1.39,1.39,0,0,0,.789-.254,1.326,1.326,0,0,0,.591-1.041,2.953,2.953,0,0,0-.066-.73,3.094,3.094,0,0,1-.069-.751l1.388-1.387a.406.406,0,0,0,.275.108h0A.406.406,0,0,0,49.73,9.4l2-2a1.263,1.263,0,0,0,0-1.785L50.7,4.58l1.946-1.946A1.534,1.534,0,0,0,53.1,1.543Zm-6.3,8.625a.406.406,0,0,0-.113.217,3.735,3.735,0,0,0,.044,1.359c.078.442.07.553-.042.629a.3.3,0,0,1-.15.058c-.141,0-.256-.238-.288-.311a.406.406,0,0,0-.519-.216c-.912.354-.709,1.288-.561,1.97.077.353.164.753.05.9a.418.418,0,0,1-.307.09.777.777,0,0,1-.618-.183c-.175-.225-.047-.738.089-1.281a5.072,5.072,0,0,0,.224-1.7c-.043-.421-.237-.634-.575-.634h0a1.673,1.673,0,0,0-.22.019,1.385,1.385,0,0,1-.173.016c-.1,0-.129-.036-.147-.062a1.087,1.087,0,0,1-.1-.574v-1a.406.406,0,0,0-.118-.287l-1.6-1.606,2.607-2.607,1.069,1.069L44.059,7.519a.081.081,0,0,0,.115.115L45.665,6.34,47.025,7.7l-.874,1.008a.081.081,0,0,0,.115.114l1.008-.874.871.871Z" transform="translate(-40.233)"/>
</svg>
